<svg xmlns="http://www.w3.org/2000/svg" xmlns:xlink="http://www.w3.org/1999/xlink" version="1.1" viewBox="0 0 32 32">
  <defs>
    <linearGradient id="linear-gradient" x1="15.95" x2="15.95" y1="16.09" y2="10.03" gradientTransform="translate(-3.5782011 -3.6026956) scale(1.2247229)" gradientUnits="userSpaceOnUse">
      <stop offset="0" stop-color="#006fee"/>
      <stop offset="1" stop-color="#5fe5e6"/>
    </linearGradient>
    <linearGradient id="linear-gradient-2" x1="19.06" x2="19.06" y1="16.53" y2="10" gradientUnits="userSpaceOnUse">
      <stop offset="0" stop-color="#006fee"/>
      <stop offset="1" stop-color="#006fee" stop-opacity=".2"/>
    </linearGradient>
    <linearGradient xlink:href="#linear-gradient-2" id="linear-gradient-3" x1="19.06" x2="19.06" y1="16.53" y2="10" gradientTransform="translate(-3.5782011 -3.6026956) scale(1.2247229)" gradientUnits="userSpaceOnUse"/>
    <style>
      .cls-1{fill:#a5e0fa}.cls-2{fill:#d2f0fd}.cls-3{fill:url(#linear-gradient-2);opacity:.81}
    </style>
  </defs>
  <path fill="#ffecc5" d="M2.0187826 9.6733006c-2.16775958-2.1677595-2.18000681-5.6459725-.048989-7.7769904 2.1310179-2.13101783 5.6214781-2.1187706 7.7769905.0489889"/>
  <path fill="#ff9000" d="M8.6445334 2.4229411 6.5135156 4.5539589l-.5633725-.1714612.0244944-2.9883239s1.0655089-.2204501 2.6698959 1.0410145zM5.5092428 4.3335088l-.5143836.2326973-2.1310178-2.0820289s1.1389923-1.1389923 2.620907-1.1144978zm-.8695532.5633725-.2082029.5143836-3.0005711-.0244944s.085731-1.5186564 1.1144978-2.5841653l2.1065234 2.0942761Zm.0122472.9552839.3306752.3184279-2.4984347 2.3882097S1.4431628 7.3095854 1.4431628 5.9011541z"/>
  <path fill="none" stroke="#ff9000" stroke-miterlimit="10" stroke-width=".747081" d="M1.9697936 9.6977951c-2.13101781-2.1310179-2.13101781-5.5969837 0-7.7280015 2.1310179-2.13101785 5.5969837-2.13101785 7.7280015 0"/>
  <path d="m16 8.9999994-7.6-.135-4.7155943-4.5559851c-.3061807-.3061807-.0857306-.8328115.3429224-.8328115L16 3.4759999l1.450291 2.2904347Zm-1 4.4209536h2v18.579046h-2z" class="cls-2"/>
  <path d="M21.5 30.84876v1.151239h-11V30.84876c0-.416406.508249-.84876.924654-.84876h9.14868c.416406 0 .926666.432354.926666.84876Z" class="cls-2"/>
  <path d="M28.387067 3.9538447c0 .1224723-.04899.2449446-.146967.3429224l-4.653947 4.5069803-.04899.048989v-2.780121c0-.1469667-.122472-.269439-.281686-.269439h-2.437199c-.146967 0-.269439.1224723-.269439.269439v2.7923681h-3.110795V5.7786818h2.82911c.146967 0 .269439-.1224723.269439-.2816863v-2.03304h2.976076v2.0452873c0 .159214.122473.269439.269439.269439h2.510682c.146967 0 .269439-.110225.269439-.269439V3.7946307c0-.1469667.122473-.269439.26944-.269439h1.298206c.159214.073483.257192.2449446.257192.428653zM15.992871 13.4332H17v18.566799h-1.007129z" class="cls-1"/>
  <path fill="url(#linear-gradient)" d="m23.524917 8.8649835-6.968674 6.7482235c-.330675.318428-.857306.318428-1.187981 0L8.3995889 8.8649835Z" style="fill:url(#linear-gradient)"/>
  <path fill="url(#linear-gradient-2)" d="m23.537164 8.8649835-6.968673 6.7482235c-.159214.159214-.367417.244944-.587867.244944V8.8649835Z" class="cls-3" style="fill:url(#linear-gradient-3)"/>
  <path fill="url(#linear-gradient-2)" d="m23.537164 8.8649835-6.968673 6.7482235c-.159214.159214-.367417.232697-.587867.232697V8.8649835Z" class="cls-3" style="fill:url(#linear-gradient-3)"/>
  <path fill="#fff" d="M6.1338515 4.7131729h5.8296815l1.751353 7.6545181z" opacity=".45"/>
  <path fill="#0039b4" d="m10.199932 10.616337 5.16833 4.99687c.342923.330675.881801.330675 1.224723 0l5.119342-4.984623s-4.06608 3.367988-5.731703 3.367988c-1.665624 0-5.768445-3.392482-5.780692-3.380235z" opacity=".51"/>
  <path d="M28.521786 3.5251917h-1.714612c-.146967 0-.269439.1224723-.269439.269439v1.7146121c0 .159214-.122472.269439-.269439.269439h-2.510682c-.146967 0-.269439-.110225-.269439-.269439V3.4517083c0-.1469667-.122472-.269439-.269439-.269439h-2.437199c-.146966 0-.269439.1224723-.269439.269439v2.0452872c0 .159214-.122472.2816863-.269439.2816863h-2.449445V3.9415975c0-.2571918-.208203-.4653947-.465395-.4653947h-1.334948l-.01188 5.3887966 4.543355 6e-7V6.0603681c0-.1469668.122472-.2694391.269439-.2694391h2.437198c.159214 0 .281686.1224723.281686.2694391v2.8046154h2.755627c.146967 0 .269439-.1224723.269439-.2816862v-2.510682c0-.1469667.122472-.269439.269439-.269439h1.714612c.159214 0 .281686-.1224723.281686-.2694391V3.7823835c0-.1469668-.122472-.2694391-.281686-.2694391z" class="cls-1"/>
</svg>
