<svg xmlns="http://www.w3.org/2000/svg" id="Layer_1" viewBox="0 0 32 32">
  <defs>
    <linearGradient id="linear-gradient" x1="15.95" x2="15.95" y1="16.09" y2="10.03" gradientUnits="userSpaceOnUse">
      <stop offset="0" stop-color="#006fee"/>
      <stop offset="1" stop-color="#5fe5e6"/>
    </linearGradient>
    <linearGradient id="linear-gradient-2" x1="19.06" x2="19.06" y1="16.53" y2="10" gradientUnits="userSpaceOnUse">
      <stop offset="0" stop-color="#006fee"/>
      <stop offset="1" stop-color="#006fee" stop-opacity=".2"/>
    </linearGradient>
    <style>
      .cls-4{fill:#a5e0fa}.cls-5{fill:#d2f0fd}.cls-7{fill:url(#linear-gradient-2);opacity:.81}
    </style>
  </defs>
  <path fill="#ffecc5" d="M4.57 10.84C2.8 9.07 2.79 6.23 4.53 4.49s4.59-1.73 6.35.04"/>
  <path fill="#ff9000" d="M9.98 4.92 8.24 6.66l-.46-.14.02-2.44s.87-.18 2.18.85ZM7.42 6.48 7 6.67l-1.74-1.7s.93-.93 2.14-.91l.02 2.42Zm-.71.46-.17.42-2.45-.02S4.16 6.1 5 5.23l1.72 1.71Zm.01.78.27.26-2.04 1.95S4.1 8.91 4.1 7.76l2.62-.04Z"/>
  <path fill="none" stroke="#ff9000" stroke-miterlimit="10" stroke-width=".61" d="M4.53 10.86c-1.74-1.74-1.74-4.57 0-6.31s4.57-1.74 6.31 0"/>
  <path d="M19.7 10.18h2.44l-5.7 5.52c-.27.26-.7.26-.97 0l-5.74-5.56-3.8-3.68c-.25-.25-.07-.68.28-.68h10.96v1.87l2.53 1.11v1.42Zm6.28-3.72-3.8 3.68-.04.04V8.17l.59-.51h1.66c.12 0 .22-.09.22-.22v-1.4c0-.12.1-.22.22-.22h1.04c.24.11.31.44.11.64Z" class="cls-5"/>
  <path d="M15.21 13.9h1.55v15.17h-1.55z" class="cls-5"/>
  <path d="M20.34 28.13v.94h-8.71v-.94c0-.34.28-.62.62-.62h7.47c.34 0 .62.28.62.62Z" class="cls-5"/>
  <path d="M26.1 6.17c0 .1-.04.2-.12.28l-3.8 3.68-.04.04V7.9c0-.12-.1-.22-.23-.22h-1.99c-.12 0-.22.1-.22.22v2.28h-2.54V7.66h2.31c.12 0 .22-.1.22-.23V5.77h2.43v1.67c0 .13.1.22.22.22h2.05c.12 0 .22-.09.22-.22v-1.4c0-.12.1-.22.22-.22h1.06c.13.06.21.2.21.35Zm-10.12 7.74h.78v15.16h-.78z" class="cls-4"/>
  <path fill="url(#linear-gradient)" d="m22.13 10.18-5.69 5.51c-.27.26-.7.26-.97 0l-5.69-5.51h12.35Z"/>
  <path d="m22.14 10.18-5.69 5.51c-.13.13-.3.2-.48.2v-5.71h6.17Z" class="cls-7"/>
  <path d="m22.14 10.18-5.69 5.51c-.13.13-.3.19-.48.19v-5.7h6.17Z" class="cls-7"/>
  <path fill="#fff" d="M7.93 6.79h4.76l1.43 6.25-6.19-6.25Z" opacity=".45"/>
  <path fill="#0039b4" d="m11.25 11.61 4.22 4.08c.28.27.72.27 1 0l4.18-4.07s-3.32 2.75-4.68 2.75-4.71-2.77-4.72-2.76Z" opacity=".51"/>
  <path d="M26.21 5.82h-1.4c-.12 0-.22.1-.22.22v1.4c0 .13-.1.22-.22.22h-2.05c-.12 0-.22-.09-.22-.22V5.76c0-.12-.1-.22-.22-.22h-1.99c-.12 0-.22.1-.22.22v1.67c0 .13-.1.23-.22.23h-2v-1.5c0-.21-.17-.38-.38-.38h-1.09v4.39h3.7V7.89c0-.12.1-.22.22-.22h1.99c.13 0 .23.1.23.22v2.29h2.25c.12 0 .22-.1.22-.23V7.9c0-.12.1-.22.22-.22h1.4c.13 0 .23-.1.23-.22V6.03c0-.12-.1-.22-.23-.22Z" class="cls-4"/>
</svg>
